<svg width="306" height="316" xmlns="http://www.w3.org/2000/svg" xml:space="preserve" version="1.1">
 <title>club</title>

 <g>
  <title>Layer 1</title>
  <path d="m1932.945,440.224c0,24.911 -8.249,49.846 -24.673,68.863l-8.891,10.316l-118.994,137.796l-118.97,-137.749l-8.937,-10.364c-32.804,-38.009 -32.804,-99.693 0,-137.725c32.898,-38.033 86.167,-38.033 119.017,-0.047l8.937,10.34l8.891,-10.293c32.85,-38.08 86.097,-38.08 118.947,0c16.424,19.04 24.673,43.951 24.673,68.863z" id="XMLID_4_" stroke="#ffffff" fill="transparent"/>
  <path d="m305.341,195.114c0,41.941 -33.976,76.001 -75.98,76.001c-28.38,0 -53.05,-15.552 -66.129,-38.587l-0.482,0l35.967,83.672l-90.735,0l35.989,-83.672l-0.482,0c-13.079,23.035 -37.749,38.587 -66.129,38.587c-42.004,0 -76.001,-34.06 -76.001,-76.001c0,-42.004 33.997,-76.001 76.001,-76.001c4.381,0 8.698,0.419 12.953,1.111c-8.216,-12.136 -12.953,-26.724 -12.953,-42.423c0,-42.004 33.997,-76 76.001,-76c42.004,0 76.001,33.997 76.001,76c0,15.699 -4.737,30.287 -12.953,42.423c4.233,-0.692 8.551,-1.111 12.953,-1.111c42.002,0 75.979,33.997 75.979,76.001z" id="XMLID_3_" fill="#5D5D5D" stroke-width="2"/>
 </g>
</svg>